<?xml version="1.0" encoding="utf-8"?>
<!-- Generator: Adobe Illustrator 16.0.3, SVG Export Plug-In . SVG Version: 6.00 Build 0)  -->
<svg version="1.2" baseProfile="tiny" xmlns="http://www.w3.org/2000/svg" xmlns:xlink="http://www.w3.org/1999/xlink" x="0px"
	 y="0px" width="50px" height="50px" viewBox="0 0 50 50" xml:space="preserve">
<g id="Ebene_1" display="none">
	<path display="inline" fill="#3C3C3C" d="M0.706,24.02L19.338,4.854c0,0,2.218-2.341,2.218,0.198c0,2.54,0,8.691,0,8.691
		s1.492,0,3.786,0c6.564,0,18.483,0,23.34,0c0,0,1.318-0.345,1.318,1.658c0,2.002,0,18.267,0,19.703c0,1.438-1.1,1.395-1.1,1.395
		c-4.731,0-17.063,0-23.39,0c-2.069,0-3.412,0-3.412,0s0,4.931,0,8.029c0,3.087-2.301,0.758-2.301,0.758S2.375,28.42,0.559,26.608
		C-0.779,25.27,0.706,24.02,0.706,24.02z"/>
</g>
<g id="Ebene_2">
	<path fill="#3C3C3C" d="M49.86,33.859L36.614,47.148c-0.151,0.13-0.36,0.177-0.557,0.103c-0.178-0.075-0.303-0.252-0.303-0.463
		v-7.443c-6.983-0.074-13.488-2.152-18.992-5.654c-3.264-2.069-6.186-4.628-8.63-7.604C3.048,19.869,0,11.937,0,3.312
		c0-0.281,0.223-0.599,0.497-0.599h9.878c0.139,0,0.271,0.069,0.361,0.167c0.106,0.104,0.147,0.244,0.139,0.39
		c0,6.156,2.229,11.793,5.887,16.173c2.348,2.804,5.295,5.071,8.636,6.643c3.154,1.485,6.651,2.342,10.357,2.383v-8.25
		c0-0.198,0.125-0.384,0.303-0.464c0.196-0.079,0.405-0.028,0.557,0.108L49.86,33.138C50.047,33.324,50.047,33.651,49.86,33.859z"/>
</g>
</svg>
